{
  "accessors": [
    {
      "bufferView": 2,
      "componentType": 5126,
      "count": 9907,
      "max": [
        30.240690231323242,
        13.8004150390625,
        160.90985107421875
      ],
      "min": [
        -30.450672149658203,
        -9.600460052490234,
        86.7203598022461
      ],
      "type": "VEC3"
    },
    {
      "bufferView": 2,
      "byteOffset": 118884,
      "componentType": 5126,
      "count": 9907,
      "max": [
        0.9999945163726807,
        0.9997182488441467,
        0.82275390625
      ],
      "min": [
        -0.9997729063034058,
        -0.9999993443489075,
        -0.6690289378166199
      ],
      "type": "VEC3"
    },
    {
      "bufferView": 1,
      "componentType": 5126,
      "count": 9907,
      "max": [
        0.8818249702453613,
        0.6315060257911682
      ],
      "min": [
        0.11010300368070602,
        0.015279999934136868
      ],
      "type": "VEC2"
    },
    {
      "bufferView": 0,
      "componentType": 5125,
      "count": 55164,
      "type": "SCALAR"
    },
    {
      "bufferView": 2,
      "byteOffset": 237768,
      "componentType": 5126,
      "count": 9907,
      "max": [
        29.907926559448242,
        13.466333389282227,
        160.81369018554688
      ],
      "min": [
        -30.134002685546875,
        -9.266486167907715,
        86.76680755615234
      ],
      "type": "VEC3"
    },
    {
      "bufferView": 2,
      "byteOffset": 356652,
      "componentType": 5126,
      "count": 9907,
      "max": [
        0.9997427463531494,
        0.9999993443489075,
        0.6682902574539185
      ],
      "min": [
        -0.9999914765357971,
        -0.9996785521507263,
        -0.823233425617218
      ],
      "type": "VEC3"
    },
    {
      "bufferView": 1,
      "byteOffset": 79256,
      "componentType": 5126,
      "count": 9907,
      "max": [
        0.8818249702453613,
        0.6315060257911682
      ],
      "min": [
        0.11010300368070602,
        0.015279999934136868
      ],
      "type": "VEC2"
    },
    {
      "bufferView": 0,
      "byteOffset": 220656,
      "componentType": 5125,
      "count": 55164,
      "type": "SCALAR"
    },
    {
      "bufferView": 2,
      "byteOffset": 475536,
      "componentType": 5126,
      "count": 18746,
      "max": [
        30.240690231323242,
        13.8004150390625,
        161.0288543701172
      ],
      "min": [
        -30.45936393737793,
        -9.600460052490234,
        86.7203598022461
      ],
      "type": "VEC3"
    },
    {
      "bufferView": 2,
      "byteOffset": 700488,
      "componentType": 5126,
      "count": 18746,
      "max": [
        0.9998173713684082,
        0.9992857575416565,
        0.9997058510780334
      ],
      "min": [
        -0.9999790191650391,
        -0.9999013543128967,
        -0.9999421238899231
      ],
      "type": "VEC3"
    },
    {
      "bufferView": 1,
      "byteOffset": 158512,
      "componentType": 5126,
      "count": 18746,
      "max": [
        0.8818249702453613,
        0.6315060257911682
      ],
      "min": [
        0.11010300368070602,
        0.015279999934136868
      ],
      "type": "VEC2"
    },
    {
      "bufferView": 0,
      "byteOffset": 441312,
      "componentType": 5125,
      "count": 101664,
      "type": "SCALAR"
    },
    {
      "bufferView": 2,
      "byteOffset": 925440,
      "componentType": 5126,
      "count": 65532,
      "max": [
        30.4022216796875,
        15.281290054321289,
        157.93991088867188
      ],
      "min": [
        -30.764450073242188,
        -9.413078308105469,
        91.70909118652344
      ],
      "type": "VEC3"
    },
    {
      "bufferView": 2,
      "byteOffset": 1711824,
      "componentType": 5126,
      "count": 65532,
      "max": [
        0.9999534487724304,
        0.999999463558197,
        0.9712246656417847
      ],
      "min": [
        -0.9999709725379944,
        -0.9999988675117493,
        -0.9998595118522644
      ],
      "type": "VEC3"
    },
    {
      "bufferView": 3,
      "componentType": 5126,
      "count": 65532,
      "max": [
        0.9999998211860657,
        0.9999779462814331,
        0.9110866189002991,
        1.0
      ],
      "min": [
        -1.0,
        -0.9999867081642151,
        -0.925011396408081,
        1.0
      ],
      "type": "VEC4"
    },
    {
      "bufferView": 1,
      "byteOffset": 308480,
      "componentType": 5126,
      "count": 65532,
      "max": [
        0.8879340291023254,
        0.9686809778213501
      ],
      "min": [
        0.10414399951696396,
        0.06427700072526932
      ],
      "type": "VEC2"
    },
    {
      "bufferView": 0,
      "byteOffset": 847968,
      "componentType": 5125,
      "count": 383943,
      "type": "SCALAR"
    },
    {
      "bufferView": 2,
      "byteOffset": 2498208,
      "componentType": 5126,
      "count": 2465,
      "max": [
        -1.5270609855651855,
        5.205852031707764,
        156.42105102539063
      ],
      "min": [
        -21.56589126586914,
        -9.11688232421875,
        93.07569885253906
      ],
      "type": "VEC3"
    },
    {
      "bufferView": 2,
      "byteOffset": 2527788,
      "componentType": 5126,
      "count": 2465,
      "max": [
        0.4716211259365082,
        0.7698068618774414,
        0.9545424580574036
      ],
      "min": [
        -0.9999242424964905,
        -0.9999986290931702,
        -0.6047011017799377
      ],
      "type": "VEC3"
    },
    {
      "bufferView": 3,
      "byteOffset": 1048512,
      "componentType": 5126,
      "count": 2465,
      "max": [
        0.9999998211860657,
        0.4919027090072632,
        0.735011637210846,
        1.0
      ],
      "min": [
        -0.762582004070282,
        -0.9999797344207764,
        -0.20602548122406006,
        1.0
      ],
      "type": "VEC4"
    },
    {
      "bufferView": 1,
      "byteOffset": 832736,
      "componentType": 5126,
      "count": 2465,
      "max": [
        0.2649419903755188,
        0.47428300976753235
      ],
      "min": [
        0.10323800146579742,
        0.06767799705266953
      ],
      "type": "VEC2"
    },
    {
      "bufferView": 0,
      "byteOffset": 2383740,
      "componentType": 5125,
      "count": 7425,
      "type": "SCALAR"
    },
    {
      "bufferView": 2,
      "byteOffset": 2557368,
      "componentType": 5126,
      "count": 65532,
      "max": [
        30.127948760986328,
        15.006341934204102,
        157.69773864746094
      ],
      "min": [
        -30.489486694335938,
        -9.140669822692871,
        91.70708465576172
      ],
      "type": "VEC3"
    },
    {
      "bufferView": 2,
      "byteOffset": 3343752,
      "componentType": 5126,
      "count": 65532,
      "max": [
        0.9999709725379944,
        0.9999988675117493,
        0.9998043775558472
      ],
      "min": [
        -0.9999798536300659,
        -0.9999993443489075,
        -0.9712314009666443
      ],
      "type": "VEC3"
    },
    {
      "bufferView": 3,
      "byteOffset": 1087952,
      "componentType": 5126,
      "count": 65532,
      "max": [
        0.9999991655349731,
        0.9999750852584839,
        0.9460776448249817,
        -1.0
      ],
      "min": [
        -1.0,
        -0.9999802708625793,
        -0.9223783016204834,
        -1.0
      ],
      "type": "VEC4"
    },
    {
      "bufferView": 1,
      "byteOffset": 852456,
      "componentType": 5126,
      "count": 65532,
      "max": [
        0.8879340291023254,
        0.9686809778213501
      ],
      "min": [
        0.10414399951696396,
        0.06427700072526932
      ],
      "type": "VEC2"
    },
    {
      "bufferView": 0,
      "byteOffset": 2413440,
      "componentType": 5125,
      "count": 383943,
      "type": "SCALAR"
    },
    {
      "bufferView": 2,
      "byteOffset": 4130136,
      "componentType": 5126,
      "count": 2465,
      "max": [
        -1.5321300029754639,
        5.175314903259277,
        156.16062927246094
      ],
      "min": [
        -21.398405075073242,
        -8.842174530029297,
        93.0728988647461
      ],
      "type": "VEC3"
    },
    {
      "bufferView": 2,
      "byteOffset": 4159716,
      "componentType": 5126,
      "count": 2465,
      "max": [
        0.99992835521698,
        0.9999986290931702,
        0.5904032588005066
      ],
      "min": [
        -0.4714251756668091,
        -0.7709353566169739,
        -0.9549500942230225
      ],
      "type": "VEC3"
    },
    {
      "bufferView": 3,
      "byteOffset": 2136464,
      "componentType": 5126,
      "count": 2465,
      "max": [
        0.9999980330467224,
        0.4911479949951172,
        0.7179877161979675,
        -1.0
      ],
      "min": [
        -0.7629537582397461,
        -0.9998318552970886,
        -0.19956029951572418,
        -1.0
      ],
      "type": "VEC4"
    },
    {
      "bufferView": 1,
      "byteOffset": 1376712,
      "componentType": 5126,
      "count": 2465,
      "max": [
        0.2649419903755188,
        0.47428300976753235
      ],
      "min": [
        0.10323800146579742,
        0.06767799705266953
      ],
      "type": "VEC2"
    },
    {
      "bufferView": 0,
      "byteOffset": 3949212,
      "componentType": 5125,
      "count": 7425,
      "type": "SCALAR"
    },
    {
      "bufferView": 2,
      "byteOffset": 4189296,
      "componentType": 5126,
      "count": 23608,
      "max": [
        30.05536460876465,
        13.770866394042969,
        157.93991088867188
      ],
      "min": [
        -30.420724868774414,
        -9.413311004638672,
        91.57386016845703
      ],
      "type": "VEC3"
    },
    {
      "bufferView": 2,
      "byteOffset": 4472592,
      "componentType": 5126,
      "count": 23608,
      "max": [
        1.0,
        0.999531626701355,
        0.9942229986190796
      ],
      "min": [
        -0.9999914765357971,
        -0.9999894499778748,
        -0.9999963641166687
      ],
      "type": "VEC3"
    },
    {
      "bufferView": 3,
      "byteOffset": 2175904,
      "componentType": 5126,
      "count": 23608,
      "max": [
        0.9999986886978149,
        1.0,
        1.0,
        1.0
      ],
      "min": [
        -1.0,
        -1.0,
        -1.0,
        1.0
      ],
      "type": "VEC4"
    },
    {
      "bufferView": 1,
      "byteOffset": 1396432,
      "componentType": 5126,
      "count": 23608,
      "max": [
        0.8879340291023254,
        0.9686809778213501
      ],
      "min": [
        0.10323800146579742,
        0.06427700072526932
      ],
      "type": "VEC2"
    },
    {
      "bufferView": 0,
      "byteOffset": 3978912,
      "componentType": 5125,
      "count": 128304,
      "type": "SCALAR"
    },
    {
      "bufferView": 2,
      "byteOffset": 4755888,
      "componentType": 5126,
      "count": 7232,
      "max": [
        1.4209070205688477,
        -7.783967018127441,
        135.50784301757813
      ],
      "min": [
        -0.9544259905815125,
        -9.875968933105469,
        96.4660873413086
      ],
      "type": "VEC3"
    },
    {
      "bufferView": 2,
      "byteOffset": 4842672,
      "componentType": 5126,
      "count": 7232,
      "max": [
        0.9995476007461548,
        0.9993147850036621,
        1.0
      ],
      "min": [
        -0.9996432662010193,
        -0.9996383786201477,
        -1.0
      ],
      "type": "VEC3"
    },
    {
      "bufferView": 3,
      "byteOffset": 2553632,
      "componentType": 5126,
      "count": 7232,
      "max": [
        0.9999999403953552,
        0.9995788931846619,
        0.9999996423721313,
        1.0
      ],
      "min": [
        -0.999970018863678,
        -0.9996373057365417,
        -0.999998152256012,
        -1.0
      ],
      "type": "VEC4"
    },
    {
      "bufferView": 1,
      "byteOffset": 1585296,
      "componentType": 5126,
      "count": 7232,
      "max": [
        0.8258810043334961,
        0.7080550193786621
      ],
      "min": [
        0.7661719918251038,
        0.5554879903793335
      ],
      "type": "VEC2"
    },
    {
      "bufferView": 0,
      "byteOffset": 4492128,
      "componentType": 5125,
      "count": 34896,
      "type": "SCALAR"
    }
  ],
  "asset": {
    "extras": {
      "author": "Digital Fashionwear (DF) (https://sketchfab.com/digitalfashionwear)",
      "license": "CC-BY-4.0 (http://creativecommons.org/licenses/by/4.0/)",
      "source": "https://sketchfab.com/3d-models/regular-loose-fit-unisex-cardigan-design-872eac87baf04317bc155728a0c26be3",
      "title": "Regular Loose Fit Unisex Cardigan Design"
    },
    "generator": "Sketchfab-14.86.0",
    "version": "2.0"
  },
  "bufferViews": [
    {
      "buffer": 0,
      "byteLength": 4631712,
      "name": "floatBufferViews",
      "target": 34963
    },
    {
      "buffer": 0,
      "byteLength": 1643152,
      "byteOffset": 4631712,
      "byteStride": 8,
      "name": "floatBufferViews",
      "target": 34962
    },
    {
      "buffer": 0,
      "byteLength": 4929456,
      "byteOffset": 6274864,
      "byteStride": 12,
      "name": "floatBufferViews",
      "target": 34962
    },
    {
      "buffer": 0,
      "byteLength": 2669344,
      "byteOffset": 11204320,
      "byteStride": 16,
      "name": "floatBufferViews",
      "target": 34962
    }
  ],
  "buffers": [
    {
      "byteLength": 13873664,
      "uri": "scene.bin"
    }
  ],
  "extensionsRequired": [
    "KHR_materials_pbrSpecularGlossiness"
  ],
  "extensionsUsed": [
    "KHR_materials_pbrSpecularGlossiness"
  ],
  "images": [
    {
      "uri": "textures/K_Rib_100Ctn_200GSM_M_DF22014_Copy_1_FRONT_2659_diffuse.png"
    },
    {
      "uri": "textures/K_Rib_100Ctn_200GSM_M_DF22014_FRONT_2645_normal.png"
    }
  ],
  "materials": [
    {
      "doubleSided": true,
      "emissiveTexture": {
        "index": 0
      },
      "extensions": {
        "KHR_materials_pbrSpecularGlossiness": {
          "diffuseFactor": [
            1.0,
            1.0,
            1.0,
            1.0
          ],
          "diffuseTexture": {
            "index": 0
          },
          "glossinessFactor": 0.007794228634059946,
          "specularFactor": [
            0.0,
            0.0,
            0.0
          ]
        }
      },
      "name": "K_Rib_100Ctn_200GSM_M_DF22014_Copy_1_FRONT_2659"
    },
    {
      "doubleSided": true,
      "emissiveTexture": {
        "index": 0
      },
      "extensions": {
        "KHR_materials_pbrSpecularGlossiness": {
          "diffuseFactor": [
            1.0,
            1.0,
            1.0,
            1.0
          ],
          "diffuseTexture": {
            "index": 0
          },
          "glossinessFactor": 0.007794228634059946,
          "specularFactor": [
            0.0,
            0.0,
            0.0
          ]
        }
      },
      "name": "K_Rib_100Ctn_200GSM_M_DF22014_FRONT_2645",
      "normalTexture": {
        "index": 1
      }
    },
    {
      "doubleSided": true,
      "emissiveTexture": {
        "index": 0
      },
      "extensions": {
        "KHR_materials_pbrSpecularGlossiness": {
          "diffuseFactor": [
            1.0,
            1.0,
            1.0,
            1.0
          ],
          "diffuseTexture": {
            "index": 0
          },
          "glossinessFactor": 0.16145211172871318,
          "specularFactor": [
            0.0,
            0.0,
            0.0
          ]
        }
      },
      "name": "Material513130",
      "normalTexture": {
        "index": 1
      }
    }
  ],
  "meshes": [
    {
      "name": "Object_0",
      "primitives": [
        {
          "attributes": {
            "NORMAL": 1,
            "POSITION": 0,
            "TEXCOORD_0": 2
          },
          "indices": 3,
          "material": 0,
          "mode": 4
        }
      ]
    },
    {
      "name": "Object_1",
      "primitives": [
        {
          "attributes": {
            "NORMAL": 5,
            "POSITION": 4,
            "TEXCOORD_0": 6
          },
          "indices": 7,
          "material": 0,
          "mode": 4
        }
      ]
    },
    {
      "name": "Object_2",
      "primitives": [
        {
          "attributes": {
            "NORMAL": 9,
            "POSITION": 8,
            "TEXCOORD_0": 10
          },
          "indices": 11,
          "material": 0,
          "mode": 4
        }
      ]
    },
    {
      "name": "Object_3",
      "primitives": [
        {
          "attributes": {
            "NORMAL": 13,
            "POSITION": 12,
            "TANGENT": 14,
            "TEXCOORD_0": 15
          },
          "indices": 16,
          "material": 1,
          "mode": 4
        }
      ]
    },
    {
      "name": "Object_4",
      "primitives": [
        {
          "attributes": {
            "NORMAL": 18,
            "POSITION": 17,
            "TANGENT": 19,
            "TEXCOORD_0": 20
          },
          "indices": 21,
          "material": 1,
          "mode": 4
        }
      ]
    },
    {
      "name": "Object_5",
      "primitives": [
        {
          "attributes": {
            "NORMAL": 23,
            "POSITION": 22,
            "TANGENT": 24,
            "TEXCOORD_0": 25
          },
          "indices": 26,
          "material": 1,
          "mode": 4
        }
      ]
    },
    {
      "name": "Object_6",
      "primitives": [
        {
          "attributes": {
            "NORMAL": 28,
            "POSITION": 27,
            "TANGENT": 29,
            "TEXCOORD_0": 30
          },
          "indices": 31,
          "material": 1,
          "mode": 4
        }
      ]
    },
    {
      "name": "Object_7",
      "primitives": [
        {
          "attributes": {
            "NORMAL": 33,
            "POSITION": 32,
            "TANGENT": 34,
            "TEXCOORD_0": 35
          },
          "indices": 36,
          "material": 1,
          "mode": 4
        }
      ]
    },
    {
      "name": "Object_8",
      "primitives": [
        {
          "attributes": {
            "NORMAL": 38,
            "POSITION": 37,
            "TANGENT": 39,
            "TEXCOORD_0": 40
          },
          "indices": 41,
          "material": 2,
          "mode": 4
        }
      ]
    }
  ],
  "nodes": [
    {
      "children": [
        1
      ],
      "matrix": [
        0.009999999776482582,
        0.0,
        0.0,
        0.0,
        0.0,
        2.2204459996194763e-18,
        -0.009999999776482582,
        0.0,
        0.0,
        0.009999999776482582,
        2.2204459996194763e-18,
        0.0,
        0.0,
        0.0,
        0.0,
        1.0
      ],
      "name": "Sketchfab_model"
    },
    {
      "children": [
        2,
        3,
        4,
        5,
        6,
        7,
        8,
        9,
        10
      ],
      "name": "Regular Loose Fit Unisex Cardigan Design.obj.cleaner.materialmerger.gles"
    },
    {
      "mesh": 0,
      "name": "Object_2"
    },
    {
      "mesh": 1,
      "name": "Object_3"
    },
    {
      "mesh": 2,
      "name": "Object_4"
    },
    {
      "mesh": 3,
      "name": "Object_5"
    },
    {
      "mesh": 4,
      "name": "Object_6"
    },
    {
      "mesh": 5,
      "name": "Object_7"
    },
    {
      "mesh": 6,
      "name": "Object_8"
    },
    {
      "mesh": 7,
      "name": "Object_9"
    },
    {
      "mesh": 8,
      "name": "Object_10"
    }
  ],
  "samplers": [
    {
      "magFilter": 9729,
      "minFilter": 9987,
      "wrapS": 10497,
      "wrapT": 10497
    }
  ],
  "scene": 0,
  "scenes": [
    {
      "name": "Sketchfab_Scene",
      "nodes": [
        0
      ]
    }
  ],
  "textures": [
    {
      "sampler": 0,
      "source": 0
    },
    {
      "sampler": 0,
      "source": 1
    }
  ]
}
